Genre:Comedy | Horror
 Language:English
 IMDb:http://www.imdb.com/title/tt1438176/
 Source:IMAGINE Thanks!
-

Format : MPEG-4
 Format profile : Base Media
 Codec ID : isom
 File size : 1.19 GiB
 Duration : 1h 38mn
 Overall bit rate : 1 738 Kbps
- 
Video
 ID : 1
 Format : AVC
 Format/Info : Advanced Video Codec
 Format profile : High@L4.1
 Format settings, CABAC : Yes
 Format settings, ReFrames : 3 frames
 Codec ID : avc1
 Codec ID/Info : Advanced Video Coding
 Duration : 1h 38mn
 Bit rate mode : Variable
 Bit rate : 1 500 Kbps
 Maximum bit rate : 15.1 Mbps
 Width : 720 pixels
 Height : 296 pixels
 Display aspect ratio : 2.40:1
 Frame rate mode : Constant
 Frame rate : 29.970 fps
 Color space : YUV
 Chroma subsampling : 4:2:0
 Bit depth : 8 bits
 Scan type : Progressive
 Bits/(Pixel*Frame) : 0.235
 Stream size : 1.04 GiB (87%)
 Writing library : x264
-

Audio
 ID : 2
 Format : AAC
 Format/Info : Advanced Audio Codec
 Format version : Version 4
 Format profile : LC
 Format settings, SBR : No
 Codec ID : 40
 Duration : 1h 38mn
 Bit rate mode : Variable
 Bit rate : 224 Kbps
 Maximum bit rate : 253 Kbps
 Channel(s) : 2 channels
 Channel positions : Front: L R
 Sampling rate : 44.1 KHz
 Stream size : 157 MiB (13%)
-

Plot:
 A teenager suspects that his new neighbor is a vampire.
 